<svg class="ldi-wvwbeo" width="200px"  height="200px"  xmlns="http://www.w3.org/2000/svg" xmlns:xlink="http://www.w3.org/1999/xlink" viewBox="0 0 100 100" preserveAspectRatio="xMidYMid" style="background: none;"><!--?xml version="1.0" encoding="utf-8"?--><!--Generator: Adobe Illustrator 21.0.0, SVG Export Plug-In . SVG Version: 6.00 Build 0)--><svg version="1.1" id="圖層_1" xmlns="http://www.w3.org/2000/svg" xmlns:xlink="http://www.w3.org/1999/xlink" x="0px" y="0px" viewBox="0 0 100 100" style="transform-origin: 50px 50px 0px;" xml:space="preserve"><g style="transform-origin: 50px 50px 0px;"><g style="transform-origin: 50px 50px 0px; transform: scale(0.6);"><g style="transform-origin: 50px 50px 0px;"><g><style type="text/css" class="ld ldt-power-on" style="transform-origin: 50px 50px 0px; animation-duration: 0.7s; animation-delay: 0s; animation-direction: normal;">.st0{fill:#D1D1D1;} .st1{fill:#454545;} .st2{fill:#464646;} .st3{fill:#474747;} .st4{fill:#494949;} .st5{fill:#D1D2D1;}</style><g class="ld ldt-power-on" style="transform-origin: 50px 50px 0px; animation-duration: 0.7s; animation-delay: 0.0583333s; animation-direction: normal;"><path class="st0" d="M27.378,92.5c-5.288,0-9.792-2.668-12.048-7.138c-3.657-7.246-0.386-16.816,7.446-21.787 c2.617-1.661,5.486-2.62,8.354-2.8V27c0-3.22,2.071-6.01,5.154-6.941L76.816,7.81c0.681-0.206,1.387-0.31,2.098-0.31 c1.546,0,3.081,0.508,4.323,1.43c1.834,1.361,2.928,3.537,2.928,5.821v47.619c0,0.285-0.034,0.563-0.097,0.828 c0.162,6.045-3.306,12.289-8.911,15.847c-2.919,1.852-6.15,2.831-9.344,2.831c-5.288,0-9.792-2.669-12.048-7.139 c-3.656-7.246-0.386-16.815,7.446-21.786c2.646-1.68,5.551-2.641,8.452-2.805V37.363l-26.029,7.832v28.381 c0,0.05-0.001,0.098-0.003,0.148c0.208,6.132-3.258,12.358-8.908,15.944C33.803,91.521,30.572,92.5,27.378,92.5z" fill="#ff5c62" style="fill: rgb(255, 92, 98);"></path></g><g class="ld ldt-power-on" style="transform-origin: 50px 50px 0px; animation-duration: 0.7s; animation-delay: 0.116667s; animation-direction: normal;"><path class="st1" d="M82.626,14.752c0-1.175-0.556-2.281-1.5-2.981c-0.943-0.7-2.161-0.914-3.287-0.573L37.308,23.446 c-1.567,0.473-2.639,1.917-2.639,3.554v37.568c-3.081-0.717-6.694-0.103-9.997,1.994c-6.218,3.946-8.987,11.65-6.183,17.205 c2.804,5.556,10.119,6.861,16.337,2.914c4.789-3.04,7.528-8.306,7.255-13.104h0.013V42.565L75.2,32.603V53.97 c-3.103-0.753-6.756-0.15-10.094,1.968c-6.217,3.946-8.986,11.649-6.183,17.204c2.804,5.556,10.119,6.861,16.337,2.914 c4.984-3.163,7.748-8.737,7.207-13.687h0.159V14.752z" fill="#ffffcb" style="fill: rgb(255, 255, 203);"></path></g><metadata xmlns:d="https://loading.io/stock/" class="ld ldt-power-on" style="transform-origin: 50px 50px 0px; animation-duration: 0.7s; animation-delay: 0.175s; animation-direction: normal;">
<d:name class="ld ldt-power-on" style="transform-origin: 50px 50px 0px; animation-duration: 0.7s; animation-delay: 0.233333s; animation-direction: normal;">music</d:name>
<d:tags class="ld ldt-power-on" style="transform-origin: 50px 50px 0px; animation-duration: 0.7s; animation-delay: 0.291667s; animation-direction: normal;">sound,rhythm,score,play,music,map</d:tags>
<d:license class="ld ldt-power-on" style="transform-origin: 50px 50px 0px; animation-duration: 0.7s; animation-delay: 0.35s; animation-direction: normal;">cc0</d:license>
<d:slug class="ld ldt-power-on" style="transform-origin: 50px 50px 0px; animation-duration: 0.7s; animation-delay: 0.408333s; animation-direction: normal;">wvwbeo</d:slug>
</metadata></g></g></g></g><style type="text/css" class="ld ldt-power-on" style="transform-origin: 50px 50px 0px; animation-duration: 0.7s; animation-delay: 0.466667s; animation-direction: normal;">@keyframes ldt-power-on {
  0%, 20%, 100% {
    animation-timing-function: cubic-bezier(0, 0.5, 0.5, 1);
  }
  0% {
    -webkit-transform: scale(0.05, 0.05);
    transform: scale(0.05, 0.05);
  }
  20% {
    -webkit-transform: scale(1, 0.1);
    transform: scale(1, 0.1);
  }
  100% {
    -webkit-transform: scale(1, 1);
    transform: scale(1, 1);
  }
}
@-webkit-keyframes ldt-power-on {
  0%, 20%, 100% {
    animation-timing-function: cubic-bezier(0, 0.5, 0.5, 1);
  }
  0% {
    -webkit-transform: scale(0.05, 0.05);
    transform: scale(0.05, 0.05);
  }
  20% {
    -webkit-transform: scale(1, 0.1);
    transform: scale(1, 0.1);
  }
  100% {
    -webkit-transform: scale(1, 1);
    transform: scale(1, 1);
  }
}
.ldt-power-on {
  -webkit-transform: scale(0.05, 0.05);
  transform: scale(0.05, 0.05);
  -webkit-animation: ldt-power-on 1s forwards;
  animation: ldt-power-on 1s forwards;
}
</style></svg></svg>